<svg xmlns="http://www.w3.org/2000/svg" xmlns:xlink="http://www.w3.org/1999/xlink" width="100.0" height="100.0" viewBox="-96.89968972 40.11551528 7.019614439999998 3.6456664400000065" preserveAspectRatio="xMinYMin meet"><g transform="matrix(1,0,0,-1,0,83.87669700000001)"><path fill-rule="evenodd" fill="#66cc99" stroke="#555555" stroke-width="0.14039228879999996" opacity="0.6" d="M -96.639704,42.737071 L -96.635886,42.741002 L -96.632314,42.745641 L -96.630485,42.750378 L -96.626108,42.752729 L -96.620548,42.753534 L -96.619494,42.754792 L -96.620272,42.757124 L -96.621235,42.758084 L -96.622538,42.758449 L -96.62412,42.757808 L -96.628741,42.757532 L -96.632212,42.761512 L -96.6322512254152,42.7617915426293 L -96.633168,42.768325 L -96.632142,42.770863 L -96.630311,42.770885 L -96.626577751973,42.7734021938681 L -96.626406,42.773518 L -96.621875,42.779255 L -96.61949,42.784034 L -96.615579,42.784996 L -96.604559,42.783034 L -96.603784,42.78372 L -96.602575,42.787767 L -96.595283,42.792982 L -96.592493,42.801122 L -96.590757,42.808255 L -96.590913,42.808987 L -96.592155,42.809924 L -96.595664,42.810426 L -96.596008,42.815044 L -96.5955971966728,42.8153646269871 L -96.594983,42.815844 L -96.591039,42.815365 L -96.585699,42.818041 L -96.584488,42.818979 L -96.5834637264924,42.8203339617184 L -96.577937,42.827645 L -96.577813,42.828719 L -96.58238,42.833657 L -96.581604,42.837521 L -96.579772,42.838093 L -96.571353,42.837155 L -96.5667145165615,42.8317313313865 L -96.565605,42.830434 L -96.563058,42.831051 L -96.56284,42.836309 L -96.560572,42.839373 L -96.558584,42.839487 L -96.556162,42.836675 L -96.553987,42.836034 L -96.552092,42.836057 L -96.551285,42.836606 L -96.5508081179018,42.8372887595278 L -96.549513,42.839143 L -96.549976,42.840705 L -96.552184,42.841864 L -96.554203,42.843648 L -96.554709,42.846142 L -96.553772,42.847501 L -96.550847,42.847648 L -96.545502,42.849956 L -96.544321,42.851282 L -96.54146,42.857682 L -96.541708,42.858871 L -96.542702,42.859717 L -96.543417,42.859466 L -96.54379,42.858254 L -96.545282,42.857158 L -96.546556,42.857273 L -96.550439,42.863171 L -96.550469,42.863742 L -96.549659,42.870281 L -96.547327,42.87371 L -96.546394,42.874464 L -96.543908,42.874614 L -96.537851,42.878475 L -96.538438,42.886111 L -96.540396,42.888877 L -96.540116,42.889678 L -96.534395,42.890659 L -96.52774,42.890588 L -96.526357,42.891852 L -96.526563,42.893755 L -96.528886,42.89795 L -96.536007,42.900901 L -96.539397,42.899964 L -96.5411014106979,42.9018279830618 L -96.542847,42.903737 L -96.542971,42.90456 L -96.542473,42.90504 L -96.538555,42.904605 L -96.536564,42.905656 L -96.537353873885,42.9087912967329 L -96.537414960676,42.9090337724242 L -96.537837,42.910709 L -96.540229,42.918666 L -96.541628,42.920678 L -96.541689,42.922576 L -96.541098,42.924496 L -96.525536,42.935511 L -96.523513,42.935784 L -96.52118,42.934846 L -96.520559,42.932765 L -96.519378,42.931987 L -96.518258,42.931849 L -96.516888,42.932512 L -96.516203,42.933769 L -96.516419,42.935438 L -96.52012,42.938183 L -96.519994,42.93976 L -96.514888,42.943668 L -96.510749,42.944397 L -96.509472,42.945151 L -96.508069,42.948534 L -96.504857,42.954659 L -96.500308,42.959391 L -96.503132,42.968192 L -96.505028,42.970844 L -96.506148,42.971348 L -96.510693,42.97126 L -96.515922,42.972886 L -96.520246,42.977643 L -96.520773,42.980385 L -96.516724,42.981458 L -96.5165156447979,42.9816659837197 L -96.512237,42.985937 L -96.512203,42.988818 L -96.512886,42.991424 L -96.509986,42.995126 L -96.507337,42.996519 L -96.502728,42.997066 L -96.5015431422499,42.9973260024036 L -96.5002107075548,42.9976183887456 L -96.500056357767,42.9976522589008 L -96.4984206806301,42.9980111880524 L -96.49782,42.998143 L -96.4970623823074,42.9985917583835 L -96.496699,42.998807 L -96.494341,43.001819 L -96.492693,43.005089 L -96.49167,43.009707 L -96.4935903250836,43.0130944926093 L -96.494416,43.014551 L -96.4955680347642,43.0156767149592 L -96.499187,43.019213 L -96.503209,43.019805 L -96.510995,43.024701 L -96.511804,43.025799 L -96.513085,43.028437 L -96.512916,43.029962 L -96.510802,43.031902 L -96.509146,43.03668 L -96.509145,43.037297 L -96.511605,43.039927 L -96.513873,43.039814 L -96.515752,43.039388 L -96.517319,43.040247 L -96.518431,43.042068 L -96.510256,43.049917 L -96.508916,43.049985 L -96.505239,43.048726 L -96.501748,43.048632 L -96.490365,43.050789 L -96.4892773096238,43.0512779617287 L -96.488839,43.051475 L -96.488155,43.054013 L -96.486722,43.055498 L -96.476905,43.062383 L -96.473165,43.06355 L -96.469953,43.062088 L -96.468207,43.06186 L -96.463094,43.062981 L -96.46085,43.064033 L -96.458201,43.067554 L -96.455209,43.075053 L -96.4541882587124,43.083379189414 L -96.4541258653253,43.0838881324398 L -96.454088,43.084197 L -96.454526,43.086826 L -96.455337,43.088129 L -96.462636,43.089614 L -96.462855,43.091419 L -96.460516,43.09494 L -96.451877,43.100474 L -96.448134,43.104452 L -96.439335,43.113916 L -96.436589,43.120842 L -96.439615,43.121963 L -96.440801,43.123129 L -96.441644,43.124687 L -96.442711,43.128841 L -96.443431,43.133825 L -96.450361,43.142237 L -96.455544,43.144157 L -96.458854,43.143356 L -96.459978,43.143516 L -96.465099,43.147515 L -96.466537,43.150281 L -96.467384,43.159608 L -96.4673100843032,43.1631896975675 L -96.467292,43.164066 L -96.4664015802884,43.1707434045818 L -96.4663961109041,43.1707844203988 L -96.464896,43.182034 L -96.465146,43.182971 L -96.467146,43.184502 L -96.468802,43.184525 L -96.4694202281079,43.1847175402874 L -96.472395,43.185644 L -96.473834,43.189804 L -96.473777,43.198766 L -96.470781,43.205099 L -96.470626,43.207225 L -96.472158,43.209534 L -96.474912,43.217351 L -96.475571,43.221054 L -96.476697,43.222014 L -96.4850244661839,43.2241223546344 L -96.485264,43.224183 L -96.4915252904012,43.2238858824662 L -96.496454,43.223652 L -96.500759,43.220767 L -96.512458,43.218556 L -96.519273,43.21769 L -96.520961,43.21824 L -96.522084,43.22096 L -96.526865,43.224071 L -96.535741,43.22764 L -96.540088,43.225698 L -96.544902,43.225928 L -96.548184,43.226912 L -96.554937,43.226775 L -96.556313,43.226135 L -96.557317,43.224778 L -96.558995,43.224126 L -96.56044,43.224219 L -96.568505,43.231554 L -96.5691860663242,43.2334300350552 L -96.571194,43.238961 L -96.565253,43.244241 L -96.559186,43.245155 L -96.552963,43.247281 L -96.55203,43.251117 L -96.5525585062063,43.2573837081721 L -96.552591,43.257769 L -96.553217,43.259141 L -96.554965,43.259999 L -96.55697,43.259096 L -96.560099,43.259279 L -96.564165,43.260239 L -96.568576,43.262662 L -96.576804,43.268308 L -96.582904,43.26769 L -96.58522,43.268878 L -96.586317,43.274319 L -96.583533,43.276879 L -96.582939,43.276536 L -96.582876,43.274594 L -96.580904,43.2748 L -96.578575,43.277604 L -96.577819,43.279938 L -96.578828,43.284232 L -96.580708,43.28902 L -96.579582,43.293446 L -96.581159,43.295085 L -96.584086,43.292954 L -96.587014,43.291807 L -96.5887853260436,43.2935411133116 L -96.5888360184796,43.2935907407805 L -96.588918,43.293671 L -96.588492,43.296339 L -96.585647,43.296705 L -96.582947,43.298125 L -96.580346,43.298204 L -96.573556,43.29917 L -96.571646,43.298187 L -96.570707,43.296701 L -96.56911,43.295535 L -96.56429,43.294804 L -96.563523,43.294804 L -96.555246,43.294803 L -96.553087,43.29286 L -96.54930568024,43.2937060114583 L -96.541037,43.295556 L -96.530392,43.300034 L -96.52738925839,43.3068531249188 L -96.526004,43.309999 L -96.525564,43.312467 L -96.528817,43.316561 L -96.533101,43.328587 L -96.534913,43.336473 L -96.531905,43.33869 L -96.5270452475727,43.3441291451799 L -96.5245723937958,43.3468968192338 L -96.524289,43.347214 L -96.524476,43.348151 L -96.52551,43.348335 L -96.526635,43.351833 L -96.527223,43.362257 L -96.527345,43.368109 L -96.526467,43.368314 L -96.522203,43.371947 L -96.521323,43.374607 L -96.521297,43.375947 L -96.521572,43.38564 L -96.524044,43.394762 L -96.525453,43.396317 L -96.529152,43.397735 L -96.530124,43.397553 L -96.530124,43.39641 L -96.531159,43.39561 L -96.537116,43.395063 L -96.553008,43.404117 L -96.557586,43.406792 L -96.562728,43.412782 L -96.568499,43.417217 L -96.573579,43.419228 L -96.570788,43.423755 L -96.569628,43.427527 L -96.570224,43.428601 L -96.575181,43.431756 L -96.581956,43.432212 L -96.587884,43.431685 L -96.5895510825981,43.4321780527103 L -96.5896197170834,43.4321983518958 L -96.592905,43.43317 L -96.594254,43.434153 L -96.6004519303786,43.4456496637715 L -96.602608,43.449649 L -96.60286,43.450907 L -96.6018441578735,43.4531298973579 L -96.600039,43.45708 L -96.594190325342,43.4608461407913 L -96.587929,43.464878 L -96.585387,43.464949 L -96.582475,43.467051 L -96.584603,43.46961 L -96.585137,43.471141 L -96.583702,43.474302 L -96.584126,43.475563 L -96.586743,43.477389 L -96.586549,43.478499 L -96.580997,43.481384 L -96.58238,43.483399 L -96.583296,43.483172 L -96.586275,43.483514 L -96.587213,43.484915 L -96.586191,43.485807 L -96.586924,43.48767 L -96.584547,43.488833 L -96.585049,43.489887 L -96.586274,43.491099 L -96.590043,43.491906 L -96.590452,43.494298 L -96.591676,43.494367 L -96.594722,43.493314 L -96.598396,43.495074 L -96.599182,43.496011 L -96.5989289125409,43.5004410269423 L -96.598928,43.500457 L -96.591213,43.500514 L -96.5316701498273,43.5004604795008 L -96.45326,43.50039 L -96.4467579232823,43.5003863736326 L -96.351059,43.500333 L -96.332062,43.500415 L -96.3296599776972,43.5004145322558 L -96.29239,43.5004072746981 L -96.2737019743667,43.5004036355915 L -96.252539358378,43.5003995146095 L -96.2140139801351,43.5003920125886 L -96.208814,43.500391 L -96.198766,43.500312 L -96.198484,43.500335 L -96.1926862887561,43.5003286580121 L -96.1725828582542,43.500306667315 L -96.1542702323689,43.5002866355393 L -96.096196964875,43.5002231104788 L -96.0531625367105,43.5001760360714 L -95.9782859703228,43.5000941302546 L -95.9337290312954,43.5000453904063 L -95.861152,43.499966 L -95.8609457037037,43.499966 L -95.834421,43.499966 L -95.8333473396753,43.4999659183156 L -95.821277,43.499965 L -95.8156020327429,43.499959731425 L -95.7739900156904,43.499921099302 L -95.741569,43.499891 L -95.741448,43.4998914801587 L -95.740813,43.499894 L -95.6957870016392,43.4998882233245 L -95.6841480008044,43.4998867300821 L -95.6490930011248,43.4998822326502 L -95.643155930576,43.4998814709452 L -95.6232574242999,43.4998789180376 L -95.5741350050528,43.4998726158059 L -95.5651270080236,43.4998714601119 L -95.514774,43.499865 L -95.5048994835988,43.4999995032623 L -95.4971588437065,43.5001049404579 L -95.486803,43.500246 L -95.486737,43.500274 L -95.475065,43.500335 L -95.454706,43.500563 L -95.454706,43.500648 L -95.4544330261193,43.5006441487053 L -95.434293,43.50036 L -95.434199,43.500314 L -95.3945880463638,43.5002507564821 L -95.387851,43.50024 L -95.387812,43.50024 L -95.3877870925897,43.5002401628325 L -95.375269,43.500322 L -95.374737,43.500314 L -95.3353149694315,43.50036177733 L -95.3247919351981,43.500374530668 L -95.2690210418345,43.5004421219194 L -95.250969,43.500464 L -95.250762,43.500406 L -95.244844,43.501196 L -95.214938,43.500885 L -95.201280999,43.5008410791798 L -95.1805382634508,43.5007743706865 L -95.180423,43.500774 L -95.167891,43.500885 L -95.167294,43.500771 L -95.154936,43.500449 L -95.1512825204606,43.500483608697 L -95.122633,43.500755 L -95.114874,43.500667 L -95.0939861129378,43.5007335405992 L -95.054289,43.50086 L -95.0538869745663,43.5008133957778 L -95.053504,43.500769 L -95.034,43.500811 L -95.0325596399989,43.5008154475809 L -95.014245,43.500872 L -94.99446,43.500523 L -94.9944392992504,43.5005229845524 L -94.974359,43.500508 L -94.954477,43.500467 L -94.934625,43.50049 L -94.924784587109,43.5004699889926 L -94.914955,43.50045 L -94.914905,43.50045 L -94.9146337531381,43.50045 L -94.914523,43.50045 L -94.887291,43.500502 L -94.874235,43.500557 L -94.872725,43.500564 L -94.860192,43.500546 L -94.857867,43.500615 L -94.854555091254,43.5006140281275 L -94.797928832212,43.5005974112737 L -94.7445351291925,43.5005817430065 L -94.7341791042608,43.5005787040533 L -94.6784608286137,43.5005623536453 L -94.615916,43.500544 L -94.6142209207936,43.5005367812989 L -94.5673184786806,43.5003370415402 L -94.565665,43.50033 L -94.560838,43.500377 L -94.4923900462447,43.5003489903748 L -94.47042,43.50034 L -94.447048,43.500639 L -94.4428478576855,43.5005831709068 L -94.442835,43.500583 L -94.4374747926187,43.5005713023155 L -94.3947196181009,43.5004779968694 L -94.390597,43.500469 L -94.377466,43.500379 L -94.3680609610577,43.5003756258185 L -94.3249759579642,43.5003601685064 L -94.2479653766318,43.5003325399466 L -94.2279631637885,43.5003253638894 L -94.2064219337595,43.5003176356896 L -94.1281445014856,43.5002895526303 L -94.10988,43.500283 L -94.108068,43.5003 L -94.1068917812108,43.5003001713481 L -94.0980847336723,43.5003014543326 L -94.094339,43.500302 L -94.092894,43.500302 L -94.0885849419,43.5002774088665 L -94.078228600913,43.5002183068174 L -94.0682707347013,43.5001614788027 L -94.0082415198864,43.4998189012835 L -93.97076,43.499605 L -93.8884300991026,43.4995650036488 L -93.8522638676164,43.4995474338804 L -93.795793,43.49952 L -93.794285,43.499542 L -93.7684979569435,43.4995489366181 L -93.7339516848865,43.4995582294361 L -93.716217,43.499563 L -93.7161238114128,43.4995630125152 L -93.708771,43.499564 L -93.704916,43.499568 L -93.699345,43.499576 L -93.69628743205,43.49957495867 L -93.6485330413135,43.4995586947376 L -93.617131,43.499548 L -93.6169108065024,43.499547847402 L -93.6045520677199,43.4995392825755 L -93.576728,43.49952 L -93.558631,43.499521 L -93.532178,43.499472 L -93.528482,43.499471 L -93.4984250755418,43.499456492362 L -93.497405,43.499456 L -93.4973499498203,43.4994557652059 L -93.488261,43.499417 L -93.482009,43.499482 L -93.4786973251589,43.4994524989313 L -93.472804,43.4994 L -93.468563,43.499473 L -93.428509,43.499478 L -93.4086159852097,43.4994827245404 L -93.399035,43.499485 L -93.3986130480857,43.4994845721948 L -93.3799233976097,43.499465623282 L -93.298923076548,43.499383499327 L -93.2890430978566,43.4993734822936 L -93.2718,43.499356 L -93.2716540197297,43.4993567173394 L -93.2609841972866,43.4994091482888 L -93.228861,43.499567 L -93.2260580010533,43.4995670685558 L -93.2010980001878,43.4995676790278 L -93.1691729999379,43.4995684598498 L -93.1412202466295,43.4995691435185 L -93.1004559982424,43.4995701405309 L -93.0643232237308,43.4995710242666 L -93.0491919967323,43.4995713943463 L -93.024429,43.499572 L -93.0243476382082,43.4995721572398 L -93.007871,43.499604 L -92.9658228988452,43.4995868866545 L -92.9493640955672,43.4995801880122 L -92.9442725020207,43.4995781157617 L -92.9296270947665,43.4995721551616 L -92.9055253512032,43.4995623458847 L -92.8902768343623,43.4995561398224 L -92.870277,43.499548 L -92.8358299142636,43.4995561852755 L -92.8102846833008,43.4995622553029 L -92.8086269072453,43.4995626492217 L -92.790317,43.499567 L -92.790288681021,43.4995673829792 L -92.752088,43.500084 L -92.707312,43.500069 L -92.692786,43.500063 L -92.692657,43.5000629656275 L -92.689033,43.500062 L -92.6887180170752,43.5000618659892 L -92.67258,43.500055 L -92.653318,43.50005 L -92.649194,43.500049 L -92.6288247157327,43.5001022388903 L -92.5688989891947,43.5002588658556 L -92.553161,43.5003 L -92.55312804163,43.500300016729 L -92.5388448968198,43.5003072665656 L -92.464505,43.500345 L -92.4489478123769,43.5004201689952 L -92.4455318447858,43.5004366742182 L -92.4356058230475,43.5004846346272 L -92.408832,43.500614 L -92.40613,43.500476 L -92.4059595245705,43.5004760669206 L -92.388298,43.500483 L -92.3763247875815,43.5004650926684 L -92.368908,43.500454 L -92.3557301524352,43.5004513592664 L -92.3293740214264,43.5004460777118 L -92.3162802123621,43.5004434538188 L -92.3092917766612,43.5004420533931 L -92.2893900234328,43.5004380652434 L -92.279084,43.500436 L -92.277425,43.500466 L -92.2089540868053,43.5005191140011 L -92.1988749774519,43.5005269325302 L -92.198788,43.500527 L -92.197899416966,43.5005352949282 L -92.178863,43.500713 L -92.103886,43.500735 L -92.08997,43.500684 L -92.0894780030198,43.5006821825191 L -92.079954,43.500647 L -92.0798019678545,43.5006468106538 L -92.0093401680652,43.5005590550392 L -91.9707161821635,43.5005109513627 L -91.9696791810117,43.5005096598448 L -91.9504979704161,43.5004857708876 L -91.949879,43.500485 L -91.941837,43.500554 L -91.8711208984136,43.5006325808342 L -91.850940149364,43.500655005997 L -91.8496999070848,43.5006563841735 L -91.824848,43.500684 L -91.807156,43.500648 L -91.804925,43.500716 L -91.7906162191073,43.5007645611054 L -91.7905697966566,43.5007647186538 L -91.77929,43.500803 L -91.777688,43.500711 L -91.761414,43.500637 L -91.738446,43.500525 L -91.736558,43.500561 L -91.73333,43.500623 L -91.7314000005358,43.5006600279264 L -91.730359,43.50068 L -91.7302174228592,43.5006795266418 L -91.700749,43.500581 L -91.670872,43.500513 L -91.658401,43.500533 L -91.651396,43.500454 L -91.644924,43.500529 L -91.639772,43.500573 L -91.635626,43.500463 L -91.634495,43.500439 L -91.634244,43.500479 L -91.625611,43.500727 L -91.620785,43.500677 L -91.617407,43.500687 L -91.616895,43.500663 L -91.615293,43.50055 L -91.610895,43.50053 L -91.6108349615633,43.5005300181733 L -91.6108315885754,43.5005300191943 L -91.591073,43.500536 L -91.551021,43.500539 L -91.54122,43.500515 L -91.533806,43.50056 L -91.521090953346,43.5005986529807 L -91.491042,43.50069 L -91.4654882451186,43.5006093422418 L -91.465274237785,43.50060866675 L -91.465063,43.500608 L -91.4616313289298,43.5006398789116 L -91.461403,43.500642 L -91.445932,43.500588 L -91.441786,43.500438 L -91.4044282114128,43.5008152156223 L -91.397319,43.500887 L -91.37695,43.500482 L -91.3717861794086,43.5009295568951 L -91.371608,43.500945 L -91.369325,43.500827 L -91.2919251782355,43.5009464708251 L -91.2821281398354,43.5009615930855 L -91.261781,43.500993 L -91.246715,43.500488 L -91.217706,43.50055 L -91.21827,43.497228 L -91.2180007258734,43.4946709235616 L -91.217615,43.491008 L -91.215282,43.484798 L -91.216035,43.481142 L -91.220399,43.471306 L -91.224586,43.465525 L -91.229503,43.462607 L -91.2310506211192,43.4611435993142 L -91.232241,43.460018 L -91.233187,43.457784 L -91.233367,43.455168 L -91.232276,43.450952 L -91.22875,43.445537 L -91.2090561000279,43.4268448864694 L -91.207145,43.425031 L -91.2055506500066,43.4229485023581 L -91.203144,43.419805 L -91.201224,43.415903 L -91.200359,43.412701 L -91.200527,43.408486 L -91.199408,43.403032 L -91.198048,43.399223 L -91.19767,43.395334 L -91.198953,43.389835 L -91.200701,43.38593 L -91.204831,43.378887 L -91.206072,43.374976 L -91.207367,43.373659 L -91.21336,43.370097 L -91.21499,43.368006 L -91.21477,43.365874 L -91.20662,43.352524 L -91.203964,43.349852 L -91.201847,43.349103 L -91.188014,43.347602 L -91.181115,43.345926 L -91.1714914498799,43.3411821446277 L -91.171055,43.340967 L -91.154806,43.334826 L -91.137343,43.329757 L -91.132813,43.32803 L -91.129121,43.32635 L -91.1208434591965,43.321280909131 L -91.117661,43.319332 L -91.107237,43.313645 L -91.085652,43.29187 L -91.079875,43.282773 L -91.07371,43.274746 L -91.071724,43.271392 L -91.071574,43.268193 L -91.072782,43.264363 L -91.072649,43.262129 L -91.071698,43.261014 L -91.069937,43.260272 L -91.061798,43.259952 L -91.05975,43.259074 L -91.058644,43.257679 L -91.057918,43.255366 L -91.05791,43.253968 L -91.059684,43.248566 L -91.0616956125496,43.2447909064001 L -91.062562,43.243165 L -91.066398,43.239293 L -91.071857,43.235164 L -91.079278,43.228259 L -91.087456,43.221891 L -91.0974555641492,43.2144124492885 L -91.107931,43.206578 L -91.1094252632396,43.2056354173102 L -91.113749,43.202908 L -91.119115,43.200366 L -91.12217,43.197255 L -91.123896,43.193536 L -91.124428,43.187886 L -91.134173,43.174405 L -91.135917,43.173422 L -91.138649,43.169993 L -91.141356,43.163537 L -91.1414912302085,43.16303706227 L -91.143283,43.156413 L -91.1460187538989,43.1526540347525 L -91.1462,43.152405 L -91.1558587558962,43.1432678169222 L -91.1562,43.142945 L -91.160449,43.140575 L -91.170372,43.137384 L -91.175253,43.134665 L -91.177003,43.131846 L -91.177932,43.128875 L -91.178251,43.124982 L -91.177728,43.118733 L -91.175193,43.103771 L -91.177222,43.080247 L -91.177264,43.072983 L -91.178761,43.070578 L -91.179457,43.067427 L -91.177894,43.064206 L -91.178087,43.062044 L -91.1765541263454,43.0515098394007 L -91.1754623856612,43.0440072173376 L -91.1753196541033,43.0430263425284 L -91.174692,43.038713 L -91.1744554049878,43.038001 L -91.1726063324056,43.0324364715411 L -91.168283,43.019426 L -91.1679833760744,43.0186500537067 L -91.15749,42.991475 L -91.1568126516435,42.9881698664533 L -91.156743,42.98783 L -91.156562,42.978226 L -91.155519,42.975774 L -91.150906,42.970514 L -91.148001,42.966155 L -91.1471226550075,42.9644540010826 L -91.14655,42.963345 L -91.14543,42.958211 L -91.14554,42.95651 L -91.14909,42.946554 L -91.14988,42.941955 L -91.149784,42.940244 L -91.145517,42.930378 L -91.144315,42.926592 L -91.1438,42.922877 L -91.1438754147135,42.9207199458213 L -91.143878,42.920646 L -91.145868,42.914967 L -91.146182,42.912338 L -91.146177,42.90985 L -91.14556,42.90798 L -91.144706,42.905964 L -91.143375,42.90467 L -91.138,42.903772 L -91.1303025765583,42.9008054132299 L -91.117411,42.895837 L -91.115512,42.894672 L -91.112158,42.891149 L -91.104051,42.885971 L -91.100565,42.883078 L -91.098238,42.875798 L -91.09882,42.864421 L -91.097656,42.859871 L -91.095329,42.85532 L -91.091837,42.851225 L -91.091402,42.84986 L -91.0916993287873,42.8486670002808 L -91.0929781163697,42.8435360029069 L -91.0949298289165,42.8357049666267 L -91.095114,42.834966 L -91.09406,42.830813 L -91.090136,42.829237 L -91.08277,42.829977 L -91.078665,42.827678 L -91.079314,42.820309 L -91.0788444543673,42.8149912124445 L -91.078097,42.806526 L -91.0755999267146,42.7959688017825 L -91.075481,42.795466 L -91.072447,42.787732 L -91.071138,42.783004 L -91.070716,42.775502 L -91.0699097662306,42.7714438876079 L -91.069549,42.769628 L -91.063254,42.763947 L -91.060261,42.761847 L -91.060129,42.759986 L -91.061432,42.757974 L -91.06312,42.757273 L -91.065492,42.757081 L -91.065783,42.753387 L -91.06468,42.750914 L -91.060172,42.750481 L -91.058091,42.749246 L -91.056297,42.747341 L -91.05481,42.744686 L -91.054801,42.740529 L -91.053733,42.738238 L -91.051275,42.737001 L -91.049972,42.736905 L -91.046571,42.737167 L -91.0448009429359,42.7382136044647 L -91.044139,42.738605 L -91.039383,42.738478 L -91.035418,42.73734 L -91.032013,42.734484 L -91.030984,42.73255 L -91.0309700788075,42.7324000070009 L -91.030718,42.729684 L -91.029692,42.726774 L -91.026786,42.724228 L -91.017239,42.719566 L -91.015687,42.719229 L -91.0151009554964,42.7193147485738 L -91.009577,42.720123 L -91.0081557672561,42.719531283457 L -91.000128,42.716189 L -90.995536,42.713704 L -90.988776,42.708724 L -90.980578,42.698932 L -90.977735,42.696816 L -90.974237,42.695249 L -90.965048,42.693233 L -90.9545072416918,42.6878470588238 L -90.952415,42.686778 L -90.949213,42.685573 L -90.941567,42.683844 L -90.937045,42.683399 L -90.929881,42.684128 L -90.923634,42.6855 L -90.921155,42.685406 L -90.9134,42.682949 L -90.900261,42.676254 L -90.8988992994428,42.6758524198497 L -90.8968978644181,42.6752621751195 L -90.88743,42.67247 L -90.8811725240647,42.671316812364 L -90.867125,42.668728 L -90.852497,42.664822 L -90.84391,42.663071 L -90.832702,42.661662 L -90.8281534667702,42.6609112402768 L -90.8054203075852,42.6571590108358 L -90.797017,42.655772 L -90.788226,42.653888 L -90.7809288685894,42.6531770803998 L -90.7793700564291,42.6530252138573 L -90.778752,42.652965 L -90.769495,42.651443 L -90.7625316298662,42.64967501057 L -90.760389,42.649131 L -90.743677,42.64556 L -90.731132,42.643437 L -90.720209,42.640758 L -90.709204,42.636078 L -90.706303,42.634169 L -90.702671,42.630756 L -90.700856,42.626445 L -90.700095,42.622461 L -90.693999,42.614509 L -90.692031,42.610366 L -90.691040548219,42.6076226057811 L -90.687999,42.599198 L -90.687775,42.594606 L -90.686975,42.591774 L -90.685487,42.589614 L -90.679375,42.581503 L -90.677055,42.579215 L -90.6747520439178,42.5778230099097 L -90.672727,42.576599 L -90.6682796285037,42.5731840540296 L -90.661527,42.567999 L -90.6614240934452,42.567565977793 L -90.659127,42.5579 L -90.654127,42.5499 L -90.6467044024931,42.54483516876 L -90.645627,42.5441 L -90.643927,42.540401 L -90.6421547075735,42.5335803594494 L -90.640627,42.527701 L -90.636727,42.518702 L -90.6368412172334,42.5155610260812 L -90.6368446002707,42.5154679925545 L -90.636927,42.513202 L -90.642843,42.508481 L -90.648627,42.498102 L -90.655927,42.491703 L -90.6559328003026,42.4916788320726 L -90.656527,42.489203 L -90.656327,42.483603 L -90.654027,42.478503 L -90.646727,42.471904 L -90.6430513521351,42.4697707162711 L -90.6409003095658,42.468522287618 L -90.624328,42.458904 L -90.606328,42.451505 L -90.590416,42.447493 L -90.5853037864202,42.4456079946067 L -90.582128,42.444437 L -90.570736,42.441701 L -90.567968,42.440389 L -90.565248,42.438742 L -90.560439,42.432897 L -90.558801,42.428517 L -90.558168,42.420984 L -90.55755,42.419258 L -90.555018,42.416138 L -90.548068,42.413115 L -90.5273105395828,42.4062556349708 L -90.517516,42.403019 L -90.506829,42.398792 L -90.5066749708131,42.3987172265416 L -90.500128,42.395539 L -90.495766,42.392406 L -90.490334,42.387093 L -90.487154,42.385141 L -90.484621,42.38453 L -90.480148,42.384616 L -90.477279,42.383794 L -90.474121,42.381729 L -90.473812167653,42.3814582098911 L -90.470273,42.378355 L -90.4676697189142,42.3741294737454 L -90.464788,42.369452 L -90.462619,42.367253 L -90.452724,42.359303 L -90.44632,42.357041 L -90.443874,42.355218 L -90.430546,42.33686 L -90.4292377737486,42.335788531654 L -90.425363,42.332615 L -90.42135,42.330472 L -90.419027,42.328505 L -90.4183980842163,42.3276479382017 L -90.416535,42.325109 L -90.415937,42.322699 L -90.4162,42.321314 L -90.417125,42.319943 L -90.420075,42.317681 L -90.421047,42.316109 L -90.4203,42.31169 L -90.420454,42.305374 L -90.4239554222801,42.2944790786079 L -90.424326,42.293326 L -90.426909,42.290719 L -90.4305957697959,42.2844478296311 L -90.430735,42.284211 L -90.430884,42.27823 L -90.4257152229707,42.2691918761818 L -90.424098,42.266364 L -90.4223828279623,42.260579656117 L -90.422181,42.259899 L -90.419326,42.254467 L -90.416315,42.251679 L -90.4152167204431,42.250940423912 L -90.410471,42.247749 L -90.400653,42.239293 L -90.395883,42.233133 L -90.3948650784963,42.2294760227461 L -90.394749,42.229059 L -90.391108,42.225473 L -90.375129,42.214811 L -90.365138,42.210526 L -90.3604060397684,42.2075845894377 L -90.356964,42.205445 L -90.338169,42.203321 L -90.328273,42.201047 L -90.317774,42.193789 L -90.3173312688908,42.1936467132019 L -90.3068879691028,42.1902904013054 L -90.298442,42.187576 L -90.2961515406243,42.1863469318121 L -90.282173,42.178846 L -90.26908,42.1745 L -90.255456,42.171821 L -90.250129,42.171469 L -90.234919,42.165431 L -90.224244,42.160028 L -90.216107,42.15673 L -90.209479,42.15268 L -90.207421,42.149109 L -90.206369,42.1455 L -90.20536,42.139079 L -90.201404,42.130937 L -90.197342,42.128163 L -90.1946954534042,42.127247271831 L -90.190452,42.125779 L -90.187474,42.125423 L -90.17097,42.125198 L -90.167533,42.122475 L -90.162895,42.116718 L -90.161884,42.11378 L -90.1614852320327,42.1097054164115 L -90.161159,42.106372 L -90.161504,42.098912 L -90.1622403589149,42.0945352933299 L -90.1630402025116,42.0897812518784 L -90.163405,42.087613 L -90.1636189266522,42.0871018738134 L -90.1680262794418,42.0765715663407 L -90.168358,42.075779 L -90.1658954656731,42.0642341681808 L -90.165555,42.062638 L -90.1653783689635,42.0547437431376 L -90.165294,42.050973 L -90.164485,42.042105 L -90.163446,42.040407 L -90.158829,42.037769 L -90.154221,42.033073 L -90.151579,42.030633 L -90.150916,42.02944 L -90.149733,42.026564 L -90.149112,42.022679 L -90.1486140253186,42.0213727967265 L -90.148096,42.020014 L -90.143776,42.014881 L -90.141167,42.008931 L -90.1401310752616,42.003611816827 L -90.140061,42.003252 L -90.140613,41.995999 L -90.146033,41.988139 L -90.146225,41.981329 L -90.1467541080021,41.9806469989526 L -90.148599,41.978269 L -90.153834,41.974116 L -90.1545597075235,41.9729957703655 L -90.162141,41.961293 L -90.164135,41.956178 L -90.1648673567363,41.9495130071649 L -90.164939,41.948861 L -90.163847,41.944934 L -90.160648,41.940845 L -90.156902,41.938181 L -90.1549821239637,41.9358629408593 L -90.152659,41.933058 L -90.1516,41.931002 L -90.1518383787674,41.92891733574 L -90.153362,41.915593 L -90.1535084344323,41.9096703208666 L -90.153584,41.906614 L -90.1539860489443,41.905607999803 L -90.157019,41.898019 L -90.165065,41.883777 L -90.1663819574666,41.8818349111957 L -90.1678627885029,41.8796511615686 L -90.1687436426227,41.8783521849748 L -90.170041,41.876439 L -90.1712322934347,41.8719388496906 L -90.1715053125748,41.8709075108684 L -90.1723950669122,41.8675464344614 L -90.1724700111653,41.8672633300694 L -90.172765,41.866149 L -90.1728068689937,41.8646293813772 L -90.173006,41.857402 L -90.1748872580213,41.853931101949 L -90.175051,41.853629 L -90.1790648293101,41.8479514858483 L -90.1803537768324,41.8461282848017 L -90.181401,41.844647 L -90.1817884378145,41.843538152975 L -90.181901,41.843216 L -90.1821539249695,41.8422694310155 L -90.1833312346892,41.8378633620213 L -90.1833357732364,41.837846376557 L -90.183765,41.83624 L -90.183973,41.83307 L -90.1831522268117,41.829255390122 L -90.18172,41.822599 L -90.180643,41.811979 L -90.180954,41.809354 L -90.181973,41.80707 L -90.187969,41.803163 L -90.2084670622592,41.7976146310039 L -90.2094928988248,41.7973369598893 L -90.2101243221809,41.7971660476476 L -90.216889,41.795335 L -90.222263,41.793133 L -90.2423802567555,41.7829645079628 L -90.2466566625497,41.7808029509078 L -90.248631,41.779805 L -90.258622,41.775295 L -90.263286,41.772112 L -90.278633,41.767358 L -90.2797111770965,41.7665844038035 L -90.302782,41.750031 L -90.310708,41.742214 L -90.31522,41.734264 L -90.3163577470743,41.7288847987591 L -90.317668,41.72269 L -90.317421,41.718333 L -90.31332,41.709494 L -90.312893,41.707528 L -90.31277,41.702426 L -90.3131945315601,41.6996528194032 L -90.313435,41.698082 L -90.314687,41.69483 L -90.317315,41.69167 L -90.319924,41.689721 L -90.330222,41.683954 L -90.332481,41.682146 L -90.3338613177078,41.6803989931947 L -90.334525,41.679559 L -90.3358608153637,41.6704513332709 L -90.3367033220262,41.6647070739167 L -90.336729,41.664532 L -90.3397761046706,41.6565672862744 L -90.3401460615335,41.6556002697712 L -90.3401478087669,41.6555957027428 L -90.343452,41.646959 L -90.34333,41.640855 L -90.3409423555351,41.6143397120993 L -90.3406780852329,41.6114049354825 L -90.339528,41.598633 L -90.339891,41.597181 L -90.3410717647059,41.5924579411765 L -90.341528,41.590633 L -90.343228,41.587833 L -90.351894876694,41.5844325986176 L -90.3561357871259,41.5827687007449 L -90.364128,41.579633 L -90.3646696505308,41.5795385315626 L -90.370997985557,41.578434816367 L -90.3787799267403,41.5770775799534 L -90.381329,41.576633 L -90.39793,41.572233 L -90.40573,41.5686209194631 L -90.41283,41.565333 L -90.4129863973,41.56520788216 L -90.41583,41.562933 L -90.4198866339156,41.5574185132709 L -90.42223,41.554233 L -90.4245346498286,41.552988737945 L -90.4251658682347,41.5526479481636 L -90.427231,41.551533 L -90.432731,41.549533 L -90.4338997635036,41.548425750365 L -90.438431,41.544133 L -90.4435803468795,41.5380749448476 L -90.445231,41.536133 L -90.44913715918,41.5330950637203 L -90.4517845363348,41.5310361196952 L -90.461432,41.523533 L -90.474332,41.519733 L -90.4752949778353,41.5196404119125 L -90.477710020304,41.5194082111752 L -90.4894869918826,41.518275882647 L -90.489933,41.518233 L -90.4994749892443,41.5180546450609 L -90.499851992491,41.5180475982712 L -90.500633,41.518033 L -90.5036140774327,41.5183907006759 L -90.513134,41.519533 L -90.5131890192399,41.5195479290938 L -90.5324969815929,41.5247870123914 L -90.533035,41.524933 L -90.537235,41.5255709746835 L -90.540935,41.526133 L -90.5455141325201,41.5255640502666 L -90.5549302919613,41.5243941078419 L -90.556235,41.524232 L -90.5662884753087,41.5181090762141 L -90.567236,41.517532 L -90.571136,41.516332 L -90.5725744174432,41.5161736421163 L -90.5763486999741,41.5157581247735 L -90.5804143427495,41.5153105310734 L -90.5816120330379,41.5151786752619 L -90.5816139501871,41.5151784641996 L -90.582036,41.515132 L -90.5853672025237,41.5142807872676 L -90.591037,41.512832 L -90.5945266206896,41.5113364482759 L -90.595237,41.511032 L -90.602137,41.506032 L -90.6031402866175,41.5017322002107 L -90.604237,41.497032 L -90.6057338713886,41.4945665647717 L -90.605937,41.494232 L -90.6086060982744,41.4922831345933 L -90.618537,41.485032 L -90.6306668798482,41.4795739439295 L -90.632538,41.478732 L -90.640238,41.473332 L -90.650238,41.465032 L -90.655839,41.462132 L -90.666239,41.460632 L -90.668939,41.4606849411765 L -90.676439,41.460832 L -90.6814450896964,41.4593869538493 L -90.690951,41.456643 L -90.701159,41.454743 L -90.7233269653468,41.4522723007442 L -90.723545,41.452248 L -90.737537,41.450127 L -90.750142,41.449632 L -90.771672,41.450761 L -90.777583,41.451261 L -90.781604601216,41.4520131721093 L -90.786282,41.452888 L -90.807283,41.454466 L -90.824736,41.454467 L -90.837414,41.455623 L -90.846558,41.455141 L -90.853604,41.453909 L -90.857554,41.452751 L -90.867282,41.448215 L -90.8713111421113,41.4459095929821 L -90.879778,41.441065 L -90.8904714304942,41.4355934681648 L -90.890787,41.435432 L -90.8914955310046,41.4351189996243 L -90.8995879719034,41.4315440861418 L -90.900471,41.431154 L -90.919351,41.425589 L -90.924343,41.42286 L -90.930016,41.421404 L -90.949791,41.424163 L -90.953198,41.425075 L -90.966662,41.430051 L -90.975168,41.433985 L -90.979815,41.434321 L -90.984898,41.433869 L -91.005846,41.426135 L -91.0095720469579,41.4254601323492 L -91.01198,41.425024 L -91.0212837290683,41.4241876237739 L -91.027787,41.423603 L -91.0347524997036,41.4209298105804 L -91.0364046990302,41.4202957366522 L -91.037131,41.420017 L -91.039872,41.418523 L -91.043988,41.415897 L -91.0450638756385,41.4148720333034 L -91.04589,41.414085 L -91.047819,41.4109 L -91.0492203780419,41.4048392773484 L -91.050328,41.400049 L -91.05069830819,41.3932656272461 L -91.05101,41.387556 L -91.05158,41.385283 L -91.0527196040375,41.3839147649106 L -91.0637200439197,41.3707073811612 L -91.065058,41.369101 L -91.06652,41.365246 L -91.071552,41.339651 L -91.071940564762,41.3335923022153 L -91.0719555241451,41.3333590479676 L -91.073233,41.31344 L -91.074841,41.305578 L -91.077505,41.301828 L -91.08688,41.294371 L -91.092034,41.286911 L -91.101142,41.267169 L -91.104462,41.262104 L -91.110304,41.256088 L -91.114186,41.250029 L -91.1139187830516,41.2457435951108 L -91.113648,41.241401 L -91.112333,41.239003 L -91.110401158097,41.2373047080925 L -91.109562,41.236567 L -91.100829,41.230532 L -91.093018,41.222635 L -91.081445,41.214429 L -91.07298,41.207151 L -91.065899,41.199517 L -91.0602465877734,41.1923400544295 L -91.0578376183422,41.1892813528 L -91.055069,41.185766 L -91.041536,41.166138 L -91.030029,41.16354 L -91.027214,41.163373 L -91.0144460817448,41.1655934696481 L -91.012557,41.165922 L -91.0096280729265,41.1660757819284 L -91.007586,41.166183 L -90.997906,41.162564 L -90.99496,41.160624 L -90.9925924236216,41.1584302932103 L -90.989663,41.155716 L -90.9845992427906,41.147799635311 L -90.981311,41.142659 L -90.970851,41.130107 L -90.965905,41.119559 L -90.9609064627032,41.1146672567209 L -90.957246,41.111085 L -90.9510198050146,41.1026108314225 L -90.946627,41.096632 L -90.946259,41.094734 L -90.948058263261,41.0852010451145 L -90.948207,41.084413 L -90.949383,41.072711 L -90.949136,41.070611 L -90.9489900261598,41.0702495855382 L -90.945549,41.06173 L -90.944577,41.052255 L -90.943652,41.048637 L -90.94232,41.038472 L -90.942253,41.034702 L -90.9432711327646,41.0295887920456 L -90.9438890440927,41.0264855532263 L -90.9439590158738,41.026134144962 L -90.945324,41.019279 L -90.945054,41.011917 L -90.945949,41.006495 L -90.949634,40.995248 L -90.955201,40.986805 L -90.9554600825403,40.9861849990077 L -90.958142,40.979767 L -90.958089,40.976643 L -90.955111,40.969858 L -90.952715,40.962087 L -90.951967,40.958238 L -90.952233,40.954047 L -90.9523248864118,40.953849459289 L -90.9537763662046,40.9507290158554 L -90.9572097893798,40.9433477192953 L -90.960462,40.936356 L -90.962916,40.924957 L -90.965344,40.921633 L -90.968995,40.919127 L -90.97919,40.915522 L -90.985462,40.912141 L -90.9985,40.90812 L -91.003536,40.905146 L -91.009536,40.900565 L -91.0117926988919,40.8981626879776 L -91.01324,40.896622 L -91.0139013709393,40.8956205658247 L -91.0174455320702,40.8902540704618 L -91.021562,40.884021 L -91.0231492356838,40.8827227178007 L -91.027489,40.879173 L -91.0279192464286,40.87898170226 L -91.036789,40.875038 L -91.039097,40.873565 L -91.044653,40.868356 L -91.047344,40.864654 L -91.050241,40.858514 L -91.05643,40.848387 L -91.058749,40.846309 L -91.067159,40.841997 L -91.077521,40.833405 L -91.078332091716,40.8328384442615 L -91.090072,40.824638 L -91.0912282493129,40.8232292046201 L -91.092993,40.821079 L -91.0934985890928,40.8198374002087 L -91.0966925398961,40.811993859461 L -91.096846,40.811617 L -91.0972124994174,40.8088593543212 L -91.097649,40.805575 L -91.097359295034,40.8041199122742 L -91.097031,40.802471 L -91.0946136284287,40.7976301817876 L -91.0926442175853,40.7936864107959 L -91.092256,40.792909 L -91.0917477238829,40.7897964378374 L -91.091246,40.786724 L -91.0916659912748,40.7802761689623 L -91.091703,40.779708 L -91.0936054305101,40.7743081893378 L -91.096133,40.767134 L -91.098105,40.763233 L -91.102486,40.757076 L -91.1054895963794,40.7538479486584 L -91.1082,40.750935 L -91.110424,40.745528 L -91.1142491611375,40.7308640420335 L -91.115735,40.725168 L -91.115158,40.721895 L -91.1144732204151,40.7206238812575 L -91.113885,40.719532 L -91.111095,40.708282 L -91.110927,40.703262 L -91.11194,40.697018 L -91.1124335845794,40.6962786908794 L -91.115407,40.691825 L -91.119632,40.675892 L -91.12082,40.672777 L -91.122421,40.670675 L -91.123928,40.669152 L -91.138055,40.660893 L -91.154293,40.653596 L -91.1591399958007,40.6511791007876 L -91.185428463588,40.6380706559482 L -91.18698,40.637297 L -91.1955137728746,40.6363675482591 L -91.197906,40.636107 L -91.218437,40.638437 L -91.2281881796316,40.6384214187991 L -91.247851,40.63839 L -91.253074,40.637962 L -91.2561110348281,40.6372049420428 L -91.258249,40.636672 L -91.264953,40.633893 L -91.276175,40.63224 L -91.2971851265565,40.6280800655548 L -91.306524,40.626231 L -91.339719,40.613488 L -91.3412699727344,40.6128353663655 L -91.348733,40.609695 L -91.353989,40.606553 L -91.3548480314576,40.6058598182596 L -91.359873,40.601805 L -91.364670847587,40.595393522054 L -91.3696144993302,40.5887872025433 L -91.374252,40.58259 L -91.379752,40.57445 L -91.3820508918384,40.5728639444804 L -91.3881921016982,40.5686269901215 L -91.401482,40.559458 L -91.405241,40.554641 L -91.4063315056927,40.5519340026533 L -91.406373,40.551831 L -91.406851,40.547557 L -91.406202,40.542698 L -91.404125,40.539127 L -91.400725,40.536789 L -91.394475,40.534543 L -91.388067,40.533069 L -91.384531,40.530948 L -91.381857,40.528247 L -91.3776237763362,40.5230489135898 L -91.369059,40.512532 L -91.3685167709789,40.5115910057648 L -91.367876,40.510479 L -91.3669075570718,40.5077213818831 L -91.364211,40.500043 L -91.363683,40.494211 L -91.363743344583,40.493124 L -91.36391,40.490122 L -91.364915,40.484168 L -91.3675483995117,40.4762269541791 L -91.368074,40.474642 L -91.3719518395388,40.4676149080532 L -91.3736896678816,40.4644657629092 L -91.3739543376618,40.4639861507792 L -91.378144,40.456394 L -91.379907,40.45211 L -91.381468,40.44604 L -91.381769,40.442555 L -91.3812707756395,40.4381180765902 L -91.380965,40.435395 L -91.3795407922934,40.4315317299934 L -91.3777307547307,40.4266218676229 L -91.377625,40.426335 L -91.373721,40.417891 L -91.37245,40.411475 L -91.3724926524621,40.4072610187694 L -91.3725215981457,40.4044012408961 L -91.372554,40.4012 L -91.372921,40.399108 L -91.3750269117845,40.3937191021982 L -91.375746,40.391879 L -91.3767075305693,40.3910852701691 L -91.3767571709521,40.391044292738 L -91.378422,40.38967 L -91.381958,40.387632 L -91.38836,40.384929 L -91.3900953076272,40.384566908251 L -91.3922280596004,40.3841218852015 L -91.396996,40.383127 L -91.413011,40.382277 L -91.415695,40.381381 L -91.419422,40.378264 L -91.422324,40.380939 L -91.425662,40.382491 L -91.4362375460985,40.3850458010728 L -91.441243,40.386255 L -91.448441,40.378914 L -91.452458,40.375501 L -91.463895,40.375659 L -91.465009,40.376223 L -91.465891,40.378365 L -91.464681,40.380949 L -91.465116,40.385257 L -91.471967,40.382884 L -91.480251,40.381783 L -91.482322,40.382057 L -91.484507,40.3839 L -91.490977,40.393484 L -91.490816,40.395225 L -91.488597,40.400009 L -91.487955,40.402465 L -91.487829,40.403866 L -91.488481,40.404317 L -91.489816,40.404317 L -91.4926886453445,40.4029031902223 L -91.493644,40.402433 L -91.498093,40.401926 L -91.505272,40.403512 L -91.506745,40.404335 L -91.507427,40.405524 L -91.509063,40.406775 L -91.513993,40.408537 L -91.518392,40.408682 L -91.522333,40.409648 L -91.524612,40.410765 L -91.526425,40.413404 L -91.527057,40.416689 L -91.526555,40.419872 L -91.521388,40.426488 L -91.519012,40.431298 L -91.519134,40.432822 L -91.519935,40.433673 L -91.525,40.433483 L -91.529132,40.434272 L -91.532807,40.436784 L -91.533623,40.43832 L -91.533548,40.440804 L -91.531912,40.44273 L -91.526108,40.446634 L -91.524053,40.448437 L -91.523271,40.450061 L -91.5231285205391,40.4516311379787 L -91.523072,40.452254 L -91.523864,40.456331 L -91.52509,40.457845 L -91.526155,40.458625 L -91.5286,40.459002 L -91.5343447817137,40.4586792934605 L -91.543785,40.458149 L -91.552691,40.458769 L -91.5605707698809,40.4603367583938 L -91.563844,40.460988 L -91.567743,40.46229 L -91.574746,40.465664 L -91.5759601979705,40.4668223478945 L -91.580355,40.471015 L -91.581528,40.472876 L -91.582437,40.474703 L -91.583315,40.479118 L -91.586884,40.487233 L -91.590817,40.492292 L -91.594644,40.494997 L -91.6022503066979,40.4977962851695 L -91.608347,40.50004 L -91.612821,40.502377 L -91.616948,40.504794 L -91.619486,40.507134 L -91.621353,40.510072 L -91.622362,40.514362 L -91.622196,40.51704 L -91.618793,40.526286 L -91.618028,40.53403 L -91.618999,40.539084 L -91.620071,40.540817 L -91.620412,40.541092 L -91.6219,40.542292 L -91.6229943727228,40.5426973978071 L -91.625161,40.5435 L -91.638082,40.545541 L -91.654345,40.549189 L -91.670993,40.550937 L -91.681714,40.553035 L -91.6887,40.55739 L -91.6895262886835,40.5583729850641 L -91.690804,40.559893 L -91.691591,40.562222 L -91.691557,40.564867 L -91.685723,40.576785 L -91.685381,40.578892 L -91.686357,40.580875 L -91.68882,40.583409 L -91.696359,40.588148 L -91.712025,40.595046 L -91.716769,40.59853 L -91.720058,40.601527 L -91.729115,40.61364 L -91.785916,40.611488 L -91.795374,40.611101 L -91.800133,40.610953 L -91.813968,40.610526 L -91.8241961132178,40.6102104337882 L -91.824826,40.610191 L -91.8323948137026,40.6098014359766 L -91.832481,40.609797 L -91.8332500099241,40.6097597912236 L -91.868401,40.608059 L -91.939292,40.60615 L -91.943113186634,40.60584170797 L -91.947708,40.605471 L -91.9486572730446,40.6054563612963 L -91.970988,40.605112 L -91.998683,40.604433 L -92.029649,40.603713 L -92.0532314315529,40.6030564769415 L -92.0537469667444,40.6030421247005 L -92.063931037129,40.6027586052923 L -92.067904,40.602648 L -92.069521,40.602772 L -92.082339,40.602176 L -92.0832,40.602244 L -92.092875,40.602082 L -92.096387,40.60183 L -92.17978,40.600529 L -92.196162,40.600069 L -92.201669,40.59998 L -92.217603,40.599832 L -92.2222999861473,40.5997571208712 L -92.236484,40.599531 L -92.2460387187319,40.5993680465506 L -92.2935932104975,40.5985570160342 L -92.298754,40.598469 L -92.331205,40.597805 L -92.331445,40.597714 L -92.350776,40.597274 L -92.3508067122935,40.5972731874493 L -92.379691,40.596509 L -92.4090465421927,40.5960249867527 L -92.4277724698605,40.595716234252 L -92.453745,40.595288 L -92.4614853486294,40.5953539465104 L -92.461609,40.595355 L -92.4730428495203,40.5951192974804 L -92.481692,40.594941 L -92.482394,40.594894 L -92.484588,40.594924 L -92.522243979,40.5938327675853 L -92.5237369133992,40.5937895038473 L -92.5593374477405,40.5927578361523 L -92.580278,40.592151 L -92.6183719330232,40.5912928617656 L -92.637898,40.590853 L -92.639223,40.590825 L -92.686693,40.589809 L -92.689854,40.589884 L -92.7145977730885,40.5895641799538 L -92.742232,40.589207 L -92.7482781402416,40.5890878701198 L -92.7528931269096,40.5889969389162 L -92.7536816767123,40.588981401757 L -92.757407,40.588908 L -92.828061,40.588593 L -92.827992,40.588515 L -92.835074,40.588484 L -92.857391,40.58836 L -92.8614804239757,40.5882259324055 L -92.863034,40.588175 L -92.8673082301257,40.5882189495912 L -92.879178,40.588341 L -92.889796,40.588039 L -92.903544,40.58786 L -92.941595,40.587743 L -92.9434709273572,40.5877066475196 L -92.9565966915631,40.5874522911429 L -92.957747,40.58743 L -92.9760382415608,40.586996662063 L -92.9823700018124,40.5868466562848 L -92.9867645016922,40.5867425461562 L -93.0666002119789,40.5848511577627 L -93.085517,40.584403 L -93.0897840027334,40.5842620827691 L -93.097296,40.584014 L -93.098507,40.583973 L -93.135802,40.582854 L -93.2040976067192,40.5817284166091 L -93.2123954505122,40.5815916594207 L -93.260612,40.580797 L -93.2889178970241,40.5807344213846 L -93.317605,40.580671 L -93.3277603968538,40.5806137238098 L -93.345442,40.580514 L -93.3743860081406,40.5803343112705 L -93.4416467873479,40.5799167462981 L -93.441767,40.579916 L -93.465297,40.580164 L -93.466887,40.580072 L -93.4890508557501,40.5802303768716 L -93.5136349026787,40.5804060477697 L -93.52054888243,40.5804554531844 L -93.5233068702263,40.5804751610134 L -93.524124,40.580481 L -93.5270607531911,40.5804430574523 L -93.527607,40.580436 L -93.528177,40.580367 L -93.5327329733654,40.5803783293215 L -93.548284,40.580417 L -93.553986,40.580303 L -93.556899,40.580235 L -93.558938,40.580189 L -93.560798,40.580304 L -93.56524,40.580143 L -93.56581,40.580075 L -93.566189,40.580117 L -93.597352,40.579496 L -93.6231598366806,40.578994391662 L -93.63309611923,40.578801267293 L -93.656211,40.578352 L -93.659272,40.57833 L -93.661913,40.578354 L -93.668845,40.578241 L -93.6691180658948,40.5782372285544 L -93.6712494752818,40.5782077906249 L -93.677099,40.578127 L -93.690333,40.577875 L -93.699862069649,40.5778055573872 L -93.722443,40.577641 L -93.728355,40.577547 L -93.737259,40.577542 L -93.7380090024992,40.5775387272618 L -93.742759,40.577518 L -93.7478472610131,40.5776557048131 L -93.750223,40.57772 L -93.770231,40.577615 L -93.7743442708352,40.5775843690663 L -93.7868681607872,40.5774911054672 L -93.8013743357048,40.5773830800784 L -93.815485,40.577278 L -93.818725,40.577086 L -93.8252794941172,40.5769989216048 L -93.84093,40.576791 L -93.853656,40.576606 L -93.88904951274,40.5761345724501 L -93.898327,40.576011 L -93.899317,40.575942 L -93.9008554992321,40.5758749372129 L -93.900877,40.575874 L -93.913961,40.575672 L -93.935687,40.57533 L -93.936317,40.575284 L -93.937097,40.575421 L -93.9374486456954,40.575389512771 L -93.938627,40.575284 L -93.939857,40.575192 L -93.963863,40.574754 L -93.976766,40.574635 L -93.9874314229973,40.5744364313386 L -94.0033238293714,40.5741405467909 L -94.015492,40.573914 L -94.034134,40.573585 L -94.0721399004369,40.5730193108399 L -94.080223,40.572899 L -94.080463,40.572899 L -94.089194,40.572806 L -94.091085,40.572897 L -94.1185427321377,40.5727044957867 L -94.1301300833749,40.5726232576887 L -94.2322400446736,40.5719073719896 L -94.2340288658393,40.5718948306912 L -94.243149901032,40.5718308837601 L -94.28735,40.571521 L -94.294813,40.571341 L -94.310724,40.571524 L -94.324765,40.571477 L -94.336556,40.571475 L -94.336706,40.571452 L -94.3461970078091,40.571412895343 L -94.358307,40.571363 L -94.3583909622239,40.5713626214423 L -94.3894118843242,40.5712227584257 L -94.4034295148182,40.5711595575937 L -94.429725,40.571041 L -94.4432011349008,40.5709992795942 L -94.460088,40.570947 L -94.4606614612098,40.5709406463105 L -94.470648,40.57083 L -94.471213,40.570825 L -94.48928,40.570707 L -94.533878,40.570739 L -94.537058,40.570763 L -94.537848,40.570763 L -94.538318,40.570763 L -94.541828,40.570809 L -94.542154,40.570809 L -94.547404941958,40.5708249005899 L -94.585766003782,40.5709410632745 L -94.594001,40.570966 L -94.632032,40.571186 L -94.6701293766138,40.5716387778549 L -94.682601,40.571787 L -94.6883547329906,40.5718606927812 L -94.6978075783957,40.5719817631313 L -94.714925,40.572201 L -94.716665,40.572201 L -94.7455179302886,40.5725915914538 L -94.773988,40.572977 L -94.7998869940877,40.5733633962827 L -94.8014749995283,40.5733870882994 L -94.811188,40.573532 L -94.819978,40.573714 L -94.823758,40.573942 L -94.8967729924285,40.5747376947822 L -94.896801,40.574738 L -94.901451,40.574877 L -94.914896,40.575068 L -94.9532709974018,40.5756411739509 L -94.955134,40.575669 L -94.966491,40.575839 L -94.991661,40.575692 L -95.0218218539645,40.5761557729033 L -95.0218363844726,40.5761559963338 L -95.0227692869091,40.5761703412483 L -95.0306757758406,40.5762919165635 L -95.040228445122,40.5764388046182 L -95.068921,40.57688 L -95.079742,40.577007 L -95.097607,40.577168 L -95.107213,40.577116 L -95.110303,40.57716 L -95.110663,40.577206 L -95.112222,40.577228 L -95.120829,40.577413 L -95.1451112794183,40.5777353694357 L -95.154499,40.57786 L -95.1640079977187,40.5780161787469 L -95.164058,40.578017 L -95.2022644684083,40.5785277644034 L -95.211408,40.57865 L -95.21159,40.578654 L -95.2116601874788,40.5786555597217 L -95.212715,40.578679 L -95.213327,40.578689 L -95.217455,40.578759 L -95.218783,40.578781 L -95.221525,40.578827 L -95.2247354840633,40.578856385036 L -95.2308634899177,40.5789124736722 L -95.2590104111472,40.5791700978427 L -95.335588,40.579871 L -95.357802,40.5801 L -95.373893,40.580501 L -95.3739230201308,40.580501370976 L -95.415406,40.581014 L -95.4310750039469,40.5811668740021 L -95.455064,40.5814009216701 L -95.469319,40.58154 L -95.4881440819169,40.5817246484949 L -95.4991554406477,40.581832654974 L -95.525392,40.58209 L -95.526682,40.582136 L -95.533182,40.582249 L -95.5453059434979,40.5824605579983 L -95.554959,40.582629 L -95.574046,40.582963 L -95.6108810329186,40.5834922990172 L -95.611069,40.583495 L -95.6380673764452,40.5841433962235 L -95.64184,40.584234 L -95.6521983900732,40.5842671635663 L -95.687442,40.58438 L -95.6875,40.584381 L -95.746443,40.584935 L -95.765645,40.585208 L -95.758895,40.588973 L -95.753148,40.59284 L -95.750053,40.597052 L -95.748858,40.599965 L -95.748626,40.603355 L -95.749685,40.606842 L -95.751271,40.609057 L -95.7529175762875,40.6101999290971 L -95.758045,40.613759 L -95.764412,40.61709 L -95.766823,40.61878 L -95.768926,40.621264 L -95.770083,40.624425 L -95.7703164407663,40.6314867457426 L -95.770442,40.635285 L -95.771325,40.639393 L -95.772832,40.642496 L -95.7741763595843,40.6444490371615 L -95.776251,40.647463 L -95.781909,40.653272 L -95.786568,40.657253 L -95.789485,40.659388 L -95.795489,40.662384 L -95.804307,40.664886 L -95.81415,40.66557 L -95.822913,40.66724 L -95.83073027461,40.6705815811157 L -95.8308255653888,40.6706223142206 L -95.8308293305508,40.670623923681 L -95.832177,40.6712 L -95.8355881252786,40.6732215027065 L -95.8377387932003,40.6744960325667 L -95.842801,40.677496 L -95.844827,40.679867 L -95.8449462545511,40.6801375210945 L -95.8451025007458,40.6804919552958 L -95.846034,40.682605 L -95.8474249718215,40.6911048130496 L -95.8474565462286,40.691297754814 L -95.847931,40.694197 L -95.8492256424835,40.6968927500315 L -95.849828,40.698147 L -95.852615,40.702262 L -95.8530810373483,40.7026611947891 L -95.859378,40.708055 L -95.8631672287627,40.7095651627736 L -95.870481,40.71248 L -95.87528,40.71412 L -95.877015,40.714287 L -95.883178,40.717579 L -95.885349,40.721093 L -95.888907,40.731855 L -95.888697,40.736292 L -95.88669,40.742101 L -95.883643,40.747831 L -95.879027,40.753081 L -95.873335,40.757616 L -95.869982,40.759645 L -95.861695,40.762871 L -95.852776,40.765631 L -95.84662,40.768619 L -95.842824,40.771093 L -95.838879,40.774545 L -95.836903,40.776477 L -95.835232,40.779151 L -95.834156,40.783016 L -95.8342151936933,40.7837840663969 L -95.834523,40.787778 L -95.835815,40.79063 L -95.843745,40.803783 L -95.8448823328026,40.8091534612802 L -95.845342,40.811324 L -95.8449331493606,40.8146473716261 L -95.844852,40.815307 L -95.843921,40.817686 L -95.838601,40.826175 L -95.837303,40.831164 L -95.837186,40.835347 L -95.841309,40.845604 L -95.8417676823509,40.8462846766663 L -95.847084,40.854174 L -95.84849,40.858607 L -95.8485474555595,40.8600169594311 L -95.84859,40.861061 L -95.847785,40.864328 L -95.846938,40.865745 L -95.844073,40.869248 L -95.842521,40.870266 L -95.8404527906158,40.8713175855955 L -95.838735,40.872191 L -95.824989,40.875 L -95.81959,40.877439 L -95.815933,40.879846 L -95.812083,40.884239 L -95.810709,40.886681 L -95.809474,40.891228 L -95.809775,40.895447 L -95.810886,40.897907 L -95.8134577460103,40.901693097976 L -95.814302,40.902936 L -95.818709,40.906818 L -95.830699,40.915004 L -95.833041,40.917243 L -95.836438,40.921642 L -95.837774,40.924712 L -95.8384303686866,40.9274014781939 L -95.8392506085763,40.9307624205148 L -95.839743,40.93278 L -95.840275,40.939942 L -95.8393781235404,40.9440620744762 L -95.837951,40.950618 L -95.8329881514547,40.958707528674 L -95.829829,40.963857 L -95.828329,40.972378 L -95.829074,40.975688 L -95.830297,40.978332 L -95.833537,40.98266 L -95.838908,40.986484 L -95.8401732360629,40.9871906539833 L -95.844351,40.989524 L -95.852547,40.991738 L -95.860116,40.995242 L -95.863492,40.99734 L -95.8668085651503,41.001063049809 L -95.8668306186634,41.0010878062435 L -95.8670579921886,41.001343047109 L -95.867286,41.001599 L -95.8678544688959,41.0028929208343 L -95.869198,41.005951 L -95.869486,41.009399 L -95.868374,41.012703 L -95.865878,41.017403 L -95.859918,41.025403 L -95.859102,41.031599 L -95.859654,41.035695 L -95.860462,41.037887 L -95.861782,41.039427 L -95.869807,41.045199 L -95.879487,41.053299 L -95.881855,41.057211 L -95.882415,41.060411 L -95.881375,41.065203 L -95.878103,41.069587 L -95.8734409264084,41.0731085127611 L -95.870631,41.075231 L -95.865463,41.080367 L -95.863839,41.083507 L -95.862587,41.088399 L -95.863268,41.093765 L -95.8641324572442,41.0967367203431 L -95.86545,41.101266 L -95.8654795758646,41.1023890725569 L -95.8655242317691,41.1040847734779 L -95.8658756806668,41.117430202854 L -95.865888,41.117898 L -95.868688,41.124698 L -95.8699398090268,41.1263425334274 L -95.8717920027143,41.1287758074875 L -95.8720187100141,41.129073638646 L -95.8750266959872,41.133025306493 L -95.878888,41.138098 L -95.8791902561598,41.1386552847947 L -95.882088,41.143998 L -95.883389,41.150898 L -95.8834874395626,41.1548355825059 L -95.883489,41.154898 L -95.881289,41.159898 L -95.8809355605553,41.1602689700412 L -95.876289,41.165146 L -95.871912,41.168122 L -95.86964,41.16883 L -95.867344,41.168734 L -95.865072,41.167802 L -95.852788,41.165398 L -95.846188,41.166698 L -95.841888,41.171098 L -95.8413229421149,41.1747708762529 L -95.841288,41.174998 L -95.8417164,41.1758548 L -95.8431422583942,41.1787065167883 L -95.844088,41.180598 L -95.850188,41.184798 L -95.856788,41.187098 L -95.864789,41.188298 L -95.8735484308257,41.1875371755146 L -95.90969,41.184398 L -95.91459,41.185098 L -95.91829,41.186698 L -95.920817812,41.188916284 L -95.92319,41.190998 L -95.9233116732375,41.1912022372202 L -95.92599,41.195698 L -95.9274848781543,41.2021714896754 L -95.927491,41.202198 L -95.924954718865,41.2109774346983 L -95.9249430651778,41.2110177743847 L -95.924891,41.211198 L -95.9246588872832,41.211477482659 L -95.915091,41.222998 L -95.912591,41.226998 L -95.9109619269411,41.2315977356958 L -95.9109518276128,41.2316262514462 L -95.910891,41.231798 L -95.910891,41.23189 L -95.910891,41.233998 L -95.911391,41.237998 L -95.9139138185291,41.2432220181664 L -95.9163664692047,41.2483007392622 L -95.9170871805789,41.2497931214007 L -95.9183939386216,41.2524990345194 L -95.921291,41.258498 L -95.9214105496406,41.2597134213468 L -95.9214118319992,41.2597264586587 L -95.921891,41.264598 L -95.920391,41.268398 L -95.918791,41.269698 L -95.913991,41.271398 L -95.9145383725837,41.2717703623019 L -95.9182262040359,41.2742790911809 L -95.928691,41.281398 L -95.9295879707301,41.2850845497007 L -95.929591,41.285097 L -95.929591,41.290449 L -95.929591,41.292297 L -95.927491,41.298397 L -95.9223739410576,41.3003158971034 L -95.920291,41.301097 L -95.90589,41.300897 L -95.90429,41.299597 L -95.90429,41.2975902842105 L -95.90429,41.293497 L -95.9087606120403,41.2858657235761 L -95.909304683906,41.284937 L -95.912491,41.279498 L -95.9038524138419,41.2742289893446 L -95.90249,41.273398 L -95.8909641080232,41.2779848462648 L -95.88239,41.281397 L -95.87689,41.285097 L -95.872889,41.289497 L -95.8728840800664,41.2895191397012 L -95.8727279882353,41.2902215529412 L -95.871489,41.295797 L -95.874689,41.307097 L -95.878189,41.312497 L -95.883089,41.316697 L -95.88869,41.319097 L -95.89929,41.321197 L -95.9127493633136,41.3202687680473 L -95.91379,41.320197 L -95.92209,41.321097 L -95.92569,41.322197 L -95.9269377073171,41.3228116341463 L -95.939291,41.328897 L -95.9393706921877,41.3289515157479 L -95.9432291696037,41.3315910189171 L -95.946891,41.334096 L -95.9499063779134,41.3369168374029 L -95.953091,41.339896 L -95.956691,41.345496 L -95.9566940330672,41.3456082234861 L -95.9566993445255,41.3458047474452 L -95.956791,41.349196 L -95.954891,41.351796 L -95.952191,41.353496 L -95.94099,41.357496 L -95.93549,41.360596 L -95.93099,41.364696 L -95.9309451251532,41.3648061473512 L -95.92879,41.370096 L -95.92929,41.374896 L -95.93519,41.384395 L -95.9369307120276,41.3909794324524 L -95.93749,41.393095 L -95.93689,41.396387 L -95.930778,41.406179 L -95.929721,41.411331 L -95.929889,41.415155 L -95.931228607404,41.4190314054781 L -95.932297,41.422123 L -95.933169,41.42943 L -95.932193,41.431914 L -95.930705,41.433894 L -95.923905,41.439742 L -95.921833,41.442062 L -95.920577,41.444302 L -95.919865,41.447922 L -95.920281,41.451566 L -95.922529,41.455766 L -95.925713,41.459382 L -95.932921,41.463798 L -95.936801,41.46519 L -95.941969,41.466262 L -95.946465,41.466166 L -95.957017,41.462814 L -95.962329,41.46281 L -95.965481,41.46351 L -95.973449,41.467318 L -95.982962,41.469778 L -95.991018,41.470374 L -96.004708,41.472342 L -96.008833,41.474039 L -96.011757,41.476212 L -96.016389,41.481556 L -96.016612104014,41.4819141127227 L -96.019542,41.486617 L -96.019817,41.48803 L -96.019224,41.489296 L -96.015986,41.492659 L -96.007334,41.497631 L -95.997903,41.504789 L -95.9961745006599,41.5069592269492 L -95.993943,41.509761 L -95.992833,41.512002 L -95.992599,41.514174 L -95.99267,41.51729 L -95.993891,41.523412 L -95.999966,41.53948 L -96.005112,41.54325 L -96.013876,41.545315 L -96.01915,41.54514 L -96.02349,41.543438 L -96.026657,41.540366 L -96.026891,41.539472 L -96.02931,41.527981 L -96.031705,41.522181 L -96.034441,41.521051 L -96.033675,41.517119 L -96.034397,41.514446 L -96.034877,41.511704 L -96.036603,41.509047 L -96.038101,41.50799 L -96.040701,41.507076 L -96.048118,41.507271 L -96.05369,41.508859 L -96.057935,41.51149 L -96.063638,41.516162 L -96.068633,41.519113 L -96.0691962075987,41.5196059468644 L -96.074156,41.523947 L -96.079922,41.525902 L -96.082654,41.525974 L -96.089814,41.531639 L -96.092008,41.53391 L -96.0965021952453,41.5451867192624 L -96.096586,41.545397 L -96.095851,41.55088 L -96.0942689235228,41.5561048111005 L -96.093613,41.558271 L -96.09182,41.561086 L -96.0884003411456,41.5643651582276 L -96.084786,41.567831 L -96.082406,41.571229 L -96.081178,41.574274 L -96.081152,41.577289 L -96.081843,41.580407 L -96.0819741753158,41.5806513494447 L -96.083417,41.583339 L -96.085771,41.585746 L -96.088683,41.58752 L -96.101496,41.59158 L -96.104465,41.593169 L -96.1075365818006,41.5954792388918 L -96.109387,41.596871 L -96.1096093715473,41.5971413869961 L -96.113833,41.602277 L -96.1146505862797,41.6037029654542 L -96.11583,41.60576 L -96.117558,41.609999 L -96.118105,41.613495 L -96.11795,41.617356 L -96.116233,41.621574 L -96.114146,41.623975 L -96.100701,41.635507 L -96.097728,41.639633 L -96.095046,41.647365 L -96.0952460299849,41.6502765475583 L -96.095415,41.652736 L -96.097933,41.658682 L -96.099837,41.66103 L -96.111483,41.668548 L -96.114978,41.67122 L -96.11812,41.674399 L -96.120983,41.677861 L -96.121726,41.68274 L -96.121711955686,41.6829898591487 L -96.121401,41.688522 L -96.1208999542561,41.6895804792725 L -96.120157,41.69115 L -96.117751,41.694221 L -96.111968,41.697773 L -96.105119,41.699917 L -96.090579,41.697425 L -96.082429,41.698159 L -96.0794925379592,41.6997474291113 L -96.075955,41.701661 L -96.073063,41.705004 L -96.072321,41.706858 L -96.072494,41.708794 L -96.073376,41.710674 L -96.075151,41.713265 L -96.079682,41.717962 L -96.0876,41.72218 L -96.0929856874241,41.7242739954568 L -96.10261,41.728016 L -96.105582,41.731647 L -96.106326,41.734591 L -96.106425,41.73789 L -96.104622,41.744211 L -96.102772,41.746339 L -96.097511,41.749076 L -96.0974177460584,41.7490975041284 L -96.091687,41.750419 L -96.084673,41.753314 L -96.079915,41.757895 L -96.0783,41.761598 L -96.0783238381219,41.7619619137385 L -96.078939,41.771353 L -96.077543,41.777824 L -96.073197,41.783009 L -96.066413,41.788913 L -96.064537,41.793002 L -96.064879,41.79623 L -96.067329,41.800628 L -96.069662,41.803509 L -96.075548,41.807811 L -96.081026,41.810144 L -96.093835,41.812785 L -96.09827,41.814206 L -96.103749,41.817151 L -96.107592,41.820685 L -96.109347,41.823735 L -96.11081,41.828172 L -96.1108555021591,41.8294132238438 L -96.110907,41.830818 L -96.1092490644499,41.8360867598038 L -96.107911,41.840339 L -96.108029,41.844397 L -96.110246,41.84885 L -96.113962,41.853102 L -96.116202,41.854869 L -96.123215,41.85858 L -96.13062,41.860809 L -96.135253,41.863128 L -96.1390095052264,41.8663010080218 L -96.142045,41.868865 L -96.144483,41.871854 L -96.146083,41.874988 L -96.146757,41.877538 L -96.14735,41.884811 L -96.148826,41.888132 L -96.152179,41.892085 L -96.158204,41.897173 L -96.161756,41.90182 L -96.161988,41.905553 L -96.160767,41.908044 L -96.159098,41.910057 L -96.154301,41.912421 L -96.142265,41.915379 L -96.1398642494219,41.9167200011843 L -96.139653,41.916838 L -96.136743,41.920826 L -96.136133,41.92353 L -96.136613,41.927167 L -96.143493,41.937387 L -96.144583,41.941544 L -96.143603,41.944512 L -96.142597,41.945908 L -96.137047125099,41.950773 L -96.135393,41.952223 L -96.133318,41.955732 L -96.129186,41.965136 L -96.1289,41.969727 L -96.129505,41.971673 L -96.132537,41.974625 L -96.141228,41.978063 L -96.156538,41.980137 L -96.16068,41.980114 L -96.168071,41.978996 L -96.174154,41.976864 L -96.177203,41.976325 L -96.184243,41.976696 L -96.186265,41.977417 L -96.1869638181829,41.9779493715186 L -96.190602,41.980721 L -96.191549,41.982032 L -96.192141,41.984461 L -96.189516,41.989314 L -96.184784,41.99546 L -96.183801,41.99776 L -96.183568,41.999987 L -96.184644,42.002633 L -96.188067,42.006323 L -96.194556,42.008662 L -96.206083,42.009267 L -96.2070502674321,42.0089955048971 L -96.215225,42.006701 L -96.217637,42.003862 L -96.221813,41.997382 L -96.223896,41.995456 L -96.225463,41.994734 L -96.229739,41.99441 L -96.231053134572,41.994802994008 L -96.236487,41.996428 L -96.240713,41.999351 L -96.242035,42.000911 L -96.24238,42.002899 L -96.241932,42.006965 L -96.238859,42.012315 L -96.2373591671796,42.0131795324554 L -96.227867,42.018651 L -96.223611,42.022652 L -96.22173,42.026205 L -96.221901,42.029558 L -96.223822,42.033346 L -96.225656,42.035217 L -96.232125,42.039145 L -96.238392,42.041088 L -96.246832,42.041616 L -96.254542,42.039454 L -96.256087,42.03808 L -96.261132,42.038974 L -96.2622216428571,42.0393237619048 L -96.263886,42.039858 L -96.268637,42.042314 L -96.271427,42.044988 L -96.272877,42.047238 L -96.2729013791207,42.047281245329 L -96.275548,42.051976 L -96.2776262940837,42.0580186203201 L -96.278445,42.060399 L -96.279342,42.07028 L -96.279079,42.074026 L -96.276758,42.081416 L -96.2745315689106,42.0852509278162 L -96.274135,42.085934 L -96.271777,42.088697 L -96.2712270789795,42.089690337173 L -96.267636,42.096177 L -96.266594,42.103262 L -96.2666630021892,42.1039294341589 L -96.267318,42.110265 L -96.2689,42.11359 L -96.272299,42.118396 L -96.275002,42.120779 L -96.279203,42.12348 L -96.28567,42.125619 L -96.2988432682133,42.1276979962145 L -96.301023,42.128042 L -96.3013562012148,42.1281642857369 L -96.305884,42.129826 L -96.310085,42.132523 L -96.313819,42.136338 L -96.316979,42.143171 L -96.319528,42.146647 L -96.325872,42.151487 L -96.3296101712424,42.1532498805578 L -96.33798,42.157197 L -96.342395,42.160491 L -96.3439603339807,42.1623362649035 L -96.347752,42.166806 L -96.349688,42.172043 L -96.350323,42.17744 L -96.347243,42.186721 L -96.3477155241203,42.1913291149324 L -96.348066,42.194747 L -96.349166,42.197253 L -96.351515,42.200485 L -96.359087,42.207799 L -96.35987,42.210545 L -96.358141,42.214088 L -96.35665510863,42.2151367517153 L -96.356591,42.215182 L -96.345055,42.21749 L -96.339086,42.218087 L -96.336323,42.218922 L -96.332044,42.221585 L -96.3269695359499,42.2266478771234 L -96.323723,42.229887 L -96.322827,42.231461 L -96.322868,42.233637 L -96.3255479809908,42.2361107997178 L -96.330004,42.240224 L -96.328955,42.241885 L -96.327706,42.249992 L -96.328905,42.254734 L -96.331331,42.25943 L -96.336003,42.264806 L -96.34145,42.269115 L -96.356389,42.27648 L -96.3564060678816,42.2764931056257 L -96.3608,42.279867 L -96.365792,42.285875 L -96.368454,42.291848 L -96.3684956662845,42.301104204425 L -96.368507,42.303622 L -96.3686751106218,42.304747983484 L -96.369212,42.308344 L -96.369969,42.310878 L -96.37179,42.314172 L -96.375307,42.318339 L -96.384169,42.325874 L -96.396269,42.330857 L -96.402957,42.334156 L -96.407998,42.337408 L -96.4118671754842,42.3413349145791 L -96.413895,42.343393 L -96.417786,42.351449 L -96.418168,42.354678 L -96.417918,42.3587 L -96.417093,42.361443 L -96.4168576041936,42.3617839783074 L -96.4150730235678,42.3643690000659 L -96.413994,42.365932 L -96.408436,42.376092 L -96.4088332489916,42.3790832793663 L -96.409153,42.381491 L -96.411331417675,42.3859588684803 L -96.4114971446592,42.3862987694908 L -96.41498,42.393442 L -96.415509,42.400294 L -96.4154962617389,42.4003449530445 L -96.413609,42.407894 L -96.411808,42.410894 L -96.4077143636951,42.4145478241399 L -96.398811354055,42.4224943120832 L -96.387608,42.432494 L -96.384307,42.437294 L -96.380707,42.446394 L -96.3806567269625,42.4468213208191 L -96.3806422638523,42.4469442572559 L -96.380107,42.451494 L -96.3801171190396,42.4515800118369 L -96.381307,42.461694 L -96.3818129003884,42.4631006498603 L -96.385407,42.473094 L -96.386007,42.474495 L -96.3860156451048,42.4745032171293 L -96.3860169343562,42.4745044425563 L -96.396107,42.484095 L -96.3961883611554,42.4841164092206 L -96.4068998721705,42.4869350159835 L -96.409408,42.487595 L -96.4134960386648,42.4879859095243 L -96.4136093470059,42.4879967443802 L -96.4216774986236,42.4887682432749 L -96.423892,42.48898 L -96.428488363228,42.4893308511901 L -96.4403030127647,42.4902326911113 L -96.445508,42.49063 L -96.447988,42.490439 L -96.450092,42.490925 L -96.456348,42.492478 L -96.463512,42.490464 L -96.466352,42.490809 L -96.469619,42.491396 L -96.469941,42.490253 L -96.470749,42.489473 L -96.472199,42.489242 L -96.475413,42.489621 L -96.477185,42.491046 L -96.477901,42.494346 L -96.4776396191973,42.495254772569 L -96.476909,42.497795 L -96.474712,42.501159 L -96.47414,42.503179 L -96.473339,42.503537 L -96.477454,42.509589 L -96.479384,42.511138 L -96.483592,42.510345 L -96.4888776945396,42.5120502202178 L -96.490089,42.512441 L -96.49297,42.517282 L -96.4908170997407,42.5203097642484 L -96.490802,42.520331 L -96.487455081481,42.5215182297032 L -96.479909,42.524195 L -96.4798968619469,42.5242246707964 L -96.479009,42.526395 L -96.4790387656079,42.5265140624316 L -96.479809,42.529595 L -96.477709,42.535595 L -96.476962,42.546434 L -96.476952,42.556079 L -96.478541,42.556378 L -96.484565,42.556885 L -96.489271,42.556801 L -96.491742,42.556511 L -96.49554,42.55644 L -96.497265,42.556981 L -96.498544,42.558116 L -96.498997,42.560832 L -96.4987762839975,42.5610432966577 L -96.487937,42.57142 L -96.485937,42.573524 L -96.485796,42.575001 L -96.486606,42.576062 L -96.491402,42.577023 L -96.49545,42.579474 L -96.496066,42.580872 L -96.49557,42.582722 L -96.494676,42.584028 L -96.494777,42.585741 L -96.496792,42.587655 L -96.499885,42.588539 L -96.501037,42.589247 L -96.5013159500108,42.5902047049491 L -96.501434,42.59061 L -96.500243,42.592731 L -96.500183,42.594106 L -96.504654,42.605001 L -96.509468,42.61273 L -96.513237,42.614894 L -96.517048,42.615343 L -96.519514,42.614371 L -96.522309,42.612558 L -96.525671,42.609312 L -96.527928,42.608986 L -96.529894,42.610432 L -96.531604,42.615148 L -96.530896,42.617129 L -96.528185,42.618447 L -96.523998,42.618631 L -96.521158,42.619229 L -96.518542,42.62035 L -96.516599,42.622361 L -96.515918,42.624994 L -96.5156195331629,42.6263870203965 L -96.51535,42.627645 L -96.516338,42.630435 L -96.526766,42.641184 L -96.533701,42.643541 L -96.537881,42.646446 L -96.538468,42.648092 L -96.5382690880067,42.649024457259 L -96.5382569686397,42.6490812702824 L -96.5376,42.652161 L -96.537877,42.655431 L -96.542366,42.660736 L -96.543698,42.661377 L -96.546827,42.661491 L -96.556214,42.657949 L -96.559281,42.657903 L -96.559962,42.658543 L -96.5599,42.662819 L -96.558939,42.663642 L -96.556461,42.663939 L -96.556244,42.664396 L -96.56055,42.669198 L -96.566684,42.675942 L -96.568078,42.676241 L -96.569194,42.675509 L -96.570247,42.674068 L -96.570743,42.671691 L -96.572261,42.670776 L -96.576381,42.671302 L -96.578581,42.672079 L -96.578148,42.672765 L -96.575272,42.675417 L -96.574318,42.676997 L -96.574064,42.67801 L -96.575299,42.682665 L -96.58562,42.687076 L -96.591602,42.688081 L -96.596405,42.688514 L -96.595548,42.691222 L -96.596625,42.695122 L -96.59908,42.697296 L -96.600789,42.697698 L -96.601989,42.697429 L -96.604839,42.695119 L -96.60614,42.694661 L -96.61017,42.694568 L -96.612061,42.695688 L -96.612124,42.69658 L -96.611901,42.697095 L -96.611851,42.697548 L -96.612203,42.698151 L -96.612555,42.698402 L -96.613058,42.698603 L -96.613409,42.698704 L -96.613912,42.698704 L -96.614516,42.698654 L -96.615257,42.698613 L -96.619536,42.700189 L -96.629625,42.705102 L -96.630617,42.70588 L -96.629777,42.708852 L -96.627233,42.709947 L -96.624446,42.714294 L -96.624704,42.725497 L -96.626317,42.725951 L -96.631931,42.725086 L -96.638621,42.734921 L -96.6390475305891,42.7357677597107 L -96.6396556433491,42.7369750011085 L -96.639704,42.737071 z" /></g></svg>