<svg xmlns="http://www.w3.org/2000/svg" xmlns:xlink="http://www.w3.org/1999/xlink" width="100.0" height="100.0" viewBox="-93.83521356 41.46234544 0.5262991200000045 0.42061612000000537" preserveAspectRatio="xMinYMin meet"><g transform="matrix(1,0,0,-1,0,83.345307)"><path fill-rule="evenodd" fill="#66cc99" stroke="#555555" stroke-width="0.010525982400000088" opacity="0.6" d="M -93.815721,41.863419 L -93.776167,41.863469 L -93.737089,41.863389 L -93.707789,41.863356 L -93.702844,41.863351 L -93.698032,41.86337 L -93.688093,41.863371 L -93.678349,41.863365 L -93.619968,41.863215 L -93.600376,41.863212 L -93.580878,41.863218 L -93.571161,41.863214 L -93.492689,41.863116 L -93.4825,41.863119 L -93.473161,41.863172 L -93.463437,41.863213 L -93.347933,41.863104 L -93.348064,41.83508 L -93.348064,41.834764 L -93.348151,41.805577 L -93.348145,41.776636 L -93.348319,41.746466 L -93.348228,41.720289 L -93.34847,41.717318 L -93.348508,41.688406 L -93.348449,41.684418 L -93.348464,41.680957 L -93.348464,41.680741 L -93.348365,41.67683 L -93.348439,41.673252 L -93.348451,41.671753 L -93.348465,41.668237 L -93.348483,41.666042 L -93.348461,41.658811 L -93.348512,41.647916 L -93.34853,41.641702 L -93.348589,41.619177 L -93.348681,41.600999 L -93.328681,41.601148 L -93.328853,41.584281 L -93.328899,41.534309 L -93.328614,41.507824 L -93.328476,41.492574 L -93.328407,41.490921 L -93.332222,41.488994 L -93.333716,41.488855 L -93.336692,41.485371 L -93.339335,41.482724 L -93.340787,41.481998 L -93.343814,41.481838 L -93.346863,41.482827 L -93.347932,41.484297 L -93.348217,41.486681 L -93.351726,41.493408 L -93.352531,41.496889 L -93.356036,41.498158 L -93.357252,41.498023 L -93.359075,41.496337 L -93.358048,41.493023 L -93.358358,41.48976 L -93.359918,41.487802 L -93.361268,41.487169 L -93.363763,41.487168 L -93.370763,41.486346 L -93.372013,41.486991 L -93.37261,41.491673 L -93.373198,41.492565 L -93.377485,41.49448 L -93.382048,41.49566 L -93.385942,41.495365 L -93.388735,41.493803 L -93.39019,41.490236 L -93.396759,41.48664 L -93.398687,41.486551 L -93.405059,41.487053 L -93.405806,41.487996 L -93.403958,41.490324 L -93.401047,41.490914 L -93.398451,41.492034 L -93.397113,41.493272 L -93.395776,41.496396 L -93.395697,41.498224 L -93.396529,41.500139 L -93.398114,41.501837 L -93.40025,41.502605 L -93.404596,41.502291 L -93.406799,41.500454 L -93.409781,41.495013 L -93.411512,41.49351 L -93.414265,41.49236 L -93.417255,41.492213 L -93.420638,41.493097 L -93.421857,41.493893 L -93.421936,41.495485 L -93.416783,41.498433 L -93.414095,41.500488 L -93.412601,41.503446 L -93.41226,41.505549 L -93.413178,41.507691 L -93.415092,41.509774 L -93.417688,41.511542 L -93.419917,41.511837 L -93.422854,41.511444 L -93.424375,41.509656 L -93.424482,41.508027 L -93.426108,41.505837 L -93.427682,41.505051 L -93.431182,41.504908 L -93.436704,41.502284 L -93.440234,41.502555 L -93.442061,41.504573 L -93.442302,41.506138 L -93.441286,41.507589 L -93.442911,41.507631 L -93.462187,41.508075 L -93.471796,41.508579 L -93.481456,41.508859 L -93.489843,41.509095 L -93.493147,41.509193 L -93.510342,41.509821 L -93.518572,41.510121 L -93.519171,41.510143 L -93.534805,41.51081 L -93.544134,41.511161 L -93.548242,41.511309 L -93.548909,41.511315 L -93.558207,41.511481 L -93.575721,41.511617 L -93.577338,41.511646 L -93.580418,41.511702 L -93.596699,41.511838 L -93.606376,41.511907 L -93.61599,41.511967 L -93.625636,41.512053 L -93.635167,41.512074 L -93.644926,41.512094 L -93.654612,41.512057 L -93.658892,41.512062 L -93.674276,41.512065 L -93.698102,41.511979 L -93.707322,41.512073 L -93.731959,41.512087 L -93.741585,41.512004 L -93.765684,41.511995 L -93.770497,41.511989 L -93.780358,41.511955 L -93.780766,41.511953 L -93.782477,41.511946 L -93.790612,41.511916 L -93.790523,41.533385 L -93.790523,41.535389 L -93.790527,41.535493 L -93.790523,41.536898 L -93.790622,41.5438 L -93.790527,41.559065 L -93.790514,41.563693 L -93.790524,41.571265 L -93.790526,41.575358 L -93.790528,41.577344 L -93.790547,41.5844 L -93.790601,41.5896 L -93.790602,41.592072 L -93.790632,41.600425 L -93.794331,41.600407 L -93.800852,41.600436 L -93.808885,41.600457 L -93.814282,41.600456 L -93.814267,41.603169 L -93.814264,41.607689 L -93.814266,41.609732 L -93.814297,41.614868 L -93.814322,41.622059 L -93.814432,41.629424 L -93.814326,41.632979 L -93.814337,41.643847 L -93.814406,41.651109 L -93.814465,41.66565 L -93.814456,41.67294 L -93.814445,41.676583 L -93.81441,41.688432 L -93.814422,41.69361 L -93.814428,41.695681 L -93.814447,41.702921 L -93.814507,41.710167 L -93.814537,41.717456 L -93.814417,41.718466 L -93.814627,41.731933 L -93.814802,41.75028 L -93.814599,41.750819 L -93.814584,41.752045 L -93.814585,41.75211 L -93.814609,41.755639 L -93.814675,41.761107 L -93.814749,41.768334 L -93.814892,41.776928 L -93.814992,41.798608 L -93.815032,41.803985 L -93.815033,41.804245 L -93.815048,41.807097 L -93.815353,41.845685 L -93.815589,41.849452 L -93.815703,41.85011 L -93.815721,41.863419 z" /></g></svg>